# xmcd
# 
# Track frame offsets:
#     150
#     19985
#     40176
#     58830
#     79526
# 
# Disc length: 1388
# 
# Revision: 0
# Processed by: cddbd v1.5.2PL0 Copyright (c) Steve Scherf et al.
# Submitted via: fre:ac v1.0.17
# 
DISCID=37056a05
DTITLE=チームしゃちほこ - いいじゃないか
DYEAR=2015
DGENRE=JPop
TTITLE0=BASYAUMA ROCK
TTITLE1=JOINT
TTITLE2=NIGI2 WONDERLAND
TTITLE3=ちぐはぐ・ランナーズ・ハイ
TTITLE4=夢の途中
EXTD=
EXTT0=
EXTT1=
EXTT2=
EXTT3=
EXTT4=
PLAYORDER=
